<?xml version="1.0" encoding="UTF-8" standalone="no"?><!DOCTYPE svg PUBLIC "-//W3C//DTD SVG 1.1//EN" "http://www.w3.org/Graphics/SVG/1.1/DTD/svg11.dtd"><svg width="100%" height="100%" viewBox="0 0 180 180" version="1.1" xmlns="http://www.w3.org/2000/svg" xmlns:xlink="http://www.w3.org/1999/xlink" xml:space="preserve" xmlns:serif="http://www.serif.com/" style="fill-rule:evenodd;clip-rule:evenodd;stroke-linejoin:round;stroke-miterlimit:2;"><path id="logo" d="M179.244,63.378c3.993,-22.647 -11.151,-44.275 -33.798,-48.269l-82.068,-14.47c-22.647,-3.993 -44.275,11.151 -48.269,33.798l-14.47,82.067c-3.993,22.648 11.151,44.276 33.798,48.269l82.067,14.471c22.648,3.993 44.276,-11.151 48.269,-33.798l14.471,-82.068Z" style="fill:#6a00f4;"/><clipPath id="_clip1"><path d="M179.244,63.378c3.993,-22.647 -11.151,-44.275 -33.798,-48.269l-82.068,-14.47c-22.647,-3.993 -44.275,11.151 -48.269,33.798l-14.47,82.067c-3.993,22.648 11.151,44.276 33.798,48.269l82.067,14.471c22.648,3.993 44.276,-11.151 48.269,-33.798l14.471,-82.068Z"/></clipPath><g clip-path="url(#_clip1)"><path d="M96.188,82.346c2.467,0.435 5.323,1.556 8.566,3.364c3.244,1.808 5.955,4.467 8.135,7.977c2.18,3.511 2.835,7.733 1.965,12.669c-1.02,5.781 -3.664,9.749 -7.933,11.904c-4.27,2.155 -8.82,3.225 -13.652,3.209c-4.831,-0.016 -7.216,-0.2 -7.154,-0.553l-28.554,-5.034c1.936,-8.092 3.585,-15.18 4.949,-21.264c1.364,-6.084 2.418,-11.241 3.164,-15.472c0.746,-4.23 1.519,-9.437 2.318,-15.62c0.8,-6.184 1.674,-13.409 2.623,-21.674l30.669,5.408c0.062,-0.353 1.881,0.259 5.456,1.834c3.575,1.576 6.607,3.964 9.096,7.165c2.489,3.202 3.279,7.376 2.372,12.522c-0.821,4.654 -2.615,8.027 -5.383,10.119c-2.768,2.093 -5.651,3.293 -8.65,3.6c-2.998,0.308 -5.661,0.256 -7.987,-0.154Zm7.4,-17.233c0.895,-5.076 0.386,-9.092 -1.529,-12.046c-1.914,-2.955 -4.563,-4.731 -7.948,-5.327c-3.102,-0.547 -5.895,-0.167 -8.379,1.139l-5.035,28.555c1.593,0.862 3.341,1.461 5.245,1.797c4.018,0.708 7.703,0.013 11.054,-2.086c3.35,-2.099 5.548,-6.109 6.592,-12.032Zm-29.604,50.393c1.833,1.559 4.195,2.594 7.086,3.103c2.679,0.473 5.329,0.286 7.95,-0.561c2.621,-0.846 4.953,-2.525 6.995,-5.036c2.042,-2.512 3.448,-5.953 4.219,-10.325c1.181,-6.697 0.299,-11.796 -2.646,-15.296c-2.945,-3.5 -6.779,-5.666 -11.503,-6.499c-2.045,-0.361 -4.027,-0.456 -5.947,-0.286l-6.154,34.9Z" style="fill:#fff;fill-rule:nonzero;"/></g></svg>