<?xml version="1.0" encoding="UTF-8" standalone="no"?><!DOCTYPE svg PUBLIC "-//W3C//DTD SVG 1.1//EN" "http://www.w3.org/Graphics/SVG/1.1/DTD/svg11.dtd"><svg width="100%" height="100%" viewBox="0 0 39 39" version="1.1" xmlns="http://www.w3.org/2000/svg" xmlns:xlink="http://www.w3.org/1999/xlink" xml:space="preserve" xmlns:serif="http://www.serif.com/" style="fill-rule:evenodd;clip-rule:evenodd;stroke-linejoin:round;stroke-miterlimit:2;"><clipPath id="_clip1"><rect x="11.154" y="-0" width="27.083" height="27.083"/></clipPath><g clip-path="url(#_clip1)"><path d="M38.237,1.593c0,-0.874 -0.719,-1.593 -1.593,-1.593l-19.117,-0c-0.874,-0 -1.594,0.719 -1.594,1.593c0,0.874 0.72,1.593 1.594,1.593l15.271,0l-32.331,32.328c-0.299,0.299 -0.467,0.705 -0.467,1.128c-0,0.875 0.72,1.595 1.595,1.595c0.423,0 0.829,-0.168 1.128,-0.467l32.328,-32.331l0,15.272c0,0.874 0.719,1.593 1.593,1.593c0.874,-0 1.593,-0.719 1.593,-1.593l0,-19.118Z" style="fill:#6a00f4;"/></g></svg>